<!-- Generated by IcoMoon.io -->
<svg version="1.1" xmlns="http://www.w3.org/2000/svg" width="32" height="32" viewBox="0 0 32 32">
<path fill="#f30" d="M16 1.684c-2.289 0-4.578 1.425-6.316 4.273l-8.202 13.726c-3.473 5.696-0.632 10.632 6.316 10.632h16.406c6.946 0 9.789-4.936 6.316-10.632l-8.205-13.588c-1.736-2.85-4.027-4.411-6.314-4.411v0z"></path>
<path fill="#fff" d="M18.526 22.178c0 1.395-1.13 2.526-2.526 2.526-1.395 0-2.526-1.132-2.526-2.526 0-1.396 1.132-2.526 2.526-2.526 1.396 0 2.526 1.13 2.526 2.526zM16 7.862c-1.395 0-2.526 1.13-2.526 2.526 0 1.395 1.132 7.579 2.526 7.579 1.396 0 2.526-6.184 2.526-7.579 0-1.396-1.13-2.526-2.526-2.526z"></path>
</svg>
